<?xml version="1.0" encoding="UTF-8"?>

<svg xmlns="http://www.w3.org/2000/svg" style="display: none;">
    <symbol id="bars" viewBox="0 0 448 512">
        <path d="M16 132h416c8.837 0 16-7.163 16-16V76c0-8.837-7.163-16-16-16H16C7.163 60 0 67.163 0 76v40c0 8.837 7.163 16 16 16zm0 160h416c8.837 0 16-7.163 16-16v-40c0-8.837-7.163-16-16-16H16c-8.837 0-16 7.163-16 16v40c0 8.837 7.163 16 16 16zm0 160h416c8.837 0 16-7.163 16-16v-40c0-8.837-7.163-16-16-16H16c-8.837 0-16 7.163-16 16v40c0 8.837 7.163 16 16 16z"></path>
    </symbol>
    <symbol id="childrens-hospital" viewBox="0 0 46 46">
        <circle fill="none" cx="23" cy="23" r="22.5"/>
        <path d="M23,1A22,22,0,1,1,1,23,22,22,0,0,1,23,1m0-1A23,23,0,1,0,46,23,23,23,0,0,0,23,0Z"/>
        <path d="M17.43,21.82V19.55a.68.68,0,0,1,.68-.68h2.27a.68.68,0,0,1,.67.68v2.27a.67.67,0,0,1-.67.68H18.11A.67.67,0,0,1,17.43,21.82Zm7.93.68h2.26a.67.67,0,0,0,.68-.68V19.55a.68.68,0,0,0-.68-.68H25.36a.68.68,0,0,0-.68.68v2.27A.67.67,0,0,0,25.36,22.5Zm-4.31,4.76V25a.68.68,0,0,0-.67-.68H18.11a.68.68,0,0,0-.68.68v2.27a.68.68,0,0,0,.68.68h2.27A.68.68,0,0,0,21.05,27.26Zm4.31.68h2.26a.68.68,0,0,0,.68-.68V25a.68.68,0,0,0-.68-.68H25.36a.68.68,0,0,0-.68.68v2.27A.68.68,0,0,0,25.36,27.94Zm10.19,7v2H10.12V35a.69.69,0,0,1,.68-.68h1.14V12.82a1.29,1.29,0,0,1,1.38-1.19h5V9.36A1.36,1.36,0,0,1,19.7,8H26A1.36,1.36,0,0,1,27.4,9.36v2.27h5a1.3,1.3,0,0,1,1.38,1.19V34.28h1.14A.68.68,0,0,1,35.55,35Zm-20.9-.74h6.4V30.43a.68.68,0,0,1,.68-.68h2.21a.67.67,0,0,1,.68.68v3.79H31V14.34H27.4V15.7A1.36,1.36,0,0,1,26,17.06H19.7a1.36,1.36,0,0,1-1.36-1.36V14.34H14.65Zm10.6-22.59H23.77V10.15a.34.34,0,0,0-.34-.34H22.3a.34.34,0,0,0-.34.34v1.48H20.49a.34.34,0,0,0-.34.33V13.1a.34.34,0,0,0,.34.34H22v1.47a.34.34,0,0,0,.34.34h1.13a.34.34,0,0,0,.34-.34V13.44h1.48a.34.34,0,0,0,.34-.34V12A.34.34,0,0,0,25.25,11.63Z"/>
    </symbol>
    <symbol id="contact" viewBox="0 0 46 46">
        <circle fill="#01254e" cx="23" cy="23" r="22.5"/>
        <path fill="#fff" d="M23,1A22,22,0,1,1,1,23,22,22,0,0,1,23,1m0-1A23,23,0,1,0,46,23,23,23,0,0,0,23,0Z"/>
        <circle fill="#01254e" cx="23" cy="23" r="19.5"/>
        <path fill="#fff" d="M23,4A19,19,0,1,1,4,23,19,19,0,0,1,23,4m0-1A20,20,0,1,0,43,23,20,20,0,0,0,23,3Z"/>
        <path fill="#fff" d="M34,28.85l-5-2.56a1.13,1.13,0,0,0-1.32.23l-2.47,2.62a17.1,17.1,0,0,1-7.6-8.7l2.95-2.08a1.11,1.11,0,0,0,.41-1.27L19.08,11.8a1.12,1.12,0,0,0-1.22-.73L13,11.84a1.1,1.1,0,0,0-.93,1A21.37,21.37,0,0,0,31.94,35.63a1.1,1.1,0,0,0,1.14-.77l1.44-4.7A1.12,1.12,0,0,0,34,28.85Z"/>
    </symbol>
    <symbol id="envelope-open-text" viewBox="0 0 512 512">
        <path d="M176 216h160c8.84 0 16-7.16 16-16v-16c0-8.84-7.16-16-16-16H176c-8.84 0-16 7.16-16 16v16c0 8.84 7.16 16 16 16zm-16 80c0 8.84 7.16 16 16 16h160c8.84 0 16-7.16 16-16v-16c0-8.84-7.16-16-16-16H176c-8.84 0-16 7.16-16 16v16zm96 121.13c-16.42 0-32.84-5.06-46.86-15.19L0 250.86V464c0 26.51 21.49 48 48 48h416c26.51 0 48-21.49 48-48V250.86L302.86 401.94c-14.02 10.12-30.44 15.19-46.86 15.19zm237.61-254.18c-8.85-6.94-17.24-13.47-29.61-22.81V96c0-26.51-21.49-48-48-48h-77.55c-3.04-2.2-5.87-4.26-9.04-6.56C312.6 29.17 279.2-.35 256 0c-23.2-.35-56.59 29.17-73.41 41.44-3.17 2.3-6 4.36-9.04 6.56H96c-26.51 0-48 21.49-48 48v44.14c-12.37 9.33-20.76 15.87-29.61 22.81A47.995 47.995 0 0 0 0 200.72v10.65l96 69.35V96h320v184.72l96-69.35v-10.65c0-14.74-6.78-28.67-18.39-37.77z"></path>
    </symbol>
    <symbol id="facebook" viewBox="0 0 512 512">
        <path d="M504 256C504 119 393 8 256 8S8 119 8 256c0 123.78 90.69 226.38 209.25 245V327.69h-63V256h63v-54.64c0-62.15 37-96.48 93.67-96.48 27.14 0 55.52 4.84 55.52 4.84v61h-31.28c-30.8 0-40.41 19.12-40.41 38.73V256h68.78l-11 71.69h-57.78V501C413.31 482.38 504 379.78 504 256z"></path>
    </symbol>
    <symbol id="facility-maps" viewBox="0 0 46.34 45.58">
        <ellipse fill="#01254e" cx="23.17" cy="22.79" rx="22.67" ry="22.29"/>
        <path fill="#fff" d="M23.17,1A22,22,0,0,1,45.34,22.79,22,22,0,0,1,23.17,44.58,22,22,0,0,1,1,22.79,22,22,0,0,1,23.17,1m0-1A23,23,0,0,0,0,22.79,23,23,0,0,0,23.17,45.58,23,23,0,0,0,46.34,22.79,23,23,0,0,0,23.17,0Z" transform="translate(0 0)"/>
        <path fill="#01254e" d="M23.17,42.11A19.51,19.51,0,0,1,3.52,22.79,19.51,19.51,0,0,1,23.17,3.47,19.51,19.51,0,0,1,42.81,22.79,19.51,19.51,0,0,1,23.17,42.11Z" transform="translate(0 0)"/>
        <path fill="#fff" d="M23.17,4A19,19,0,0,1,42.31,22.79,19,19,0,0,1,23.17,41.61,19,19,0,0,1,4,22.79,19,19,0,0,1,23.17,4m0-1A20,20,0,0,0,3,22.79,20,20,0,0,0,23.17,42.61,20,20,0,0,0,43.31,22.79,20,20,0,0,0,23.17,3Z" transform="translate(0 0)"/>
        <path fill="#fff" d="M22.92,10a5.66,5.66,0,0,0-5.66,5.66c0,2.53,3.7,7.13,5.12,8.81a.72.72,0,0,0,1.09,0c1.41-1.68,5.11-6.28,5.11-8.81A5.65,5.65,0,0,0,22.92,10Zm0,7.55a1.89,1.89,0,1,1,1.89-1.89A1.89,1.89,0,0,1,22.92,17.55Zm-12,2.15A1.45,1.45,0,0,0,10,21V32.28A.72.72,0,0,0,11,33l6.2-2.83V19.65a13.62,13.62,0,0,1-1-2.08Zm12,6.46a2.16,2.16,0,0,1-1.64-.76c-.89-1-1.83-2.23-2.67-3.45v8.17L27.25,33V22c-.85,1.22-1.79,2.4-2.67,3.45A2.16,2.16,0,0,1,22.94,26.16Zm12-8.92-6.2,2.82V33L35,30.49a1.46,1.46,0,0,0,.91-1.34V17.91a.72.72,0,0,0-1-.67Z" transform="translate(0 0)"/>
    </symbol>
    <symbol id="first-aid" viewBox="0 0 576 512">
        <path d="M0 80v352c0 26.5 21.5 48 48 48h48V32H48C21.5 32 0 53.5 0 80zm128 400h320V32H128v448zm64-248c0-4.4 3.6-8 8-8h56v-56c0-4.4 3.6-8 8-8h48c4.4 0 8 3.6 8 8v56h56c4.4 0 8 3.6 8 8v48c0 4.4-3.6 8-8 8h-56v56c0 4.4-3.6 8-8 8h-48c-4.4 0-8-3.6-8-8v-56h-56c-4.4 0-8-3.6-8-8v-48zM528 32h-48v448h48c26.5 0 48-21.5 48-48V80c0-26.5-21.5-48-48-48z"></path>
    </symbol>
    <symbol id="hospital" viewBox="0 0 448 512">
        <path d="M128 244v-40c0-6.627 5.373-12 12-12h40c6.627 0 12 5.373 12 12v40c0 6.627-5.373 12-12 12h-40c-6.627 0-12-5.373-12-12zm140 12h40c6.627 0 12-5.373 12-12v-40c0-6.627-5.373-12-12-12h-40c-6.627 0-12 5.373-12 12v40c0 6.627 5.373 12 12 12zm-76 84v-40c0-6.627-5.373-12-12-12h-40c-6.627 0-12 5.373-12 12v40c0 6.627 5.373 12 12 12h40c6.627 0 12-5.373 12-12zm76 12h40c6.627 0 12-5.373 12-12v-40c0-6.627-5.373-12-12-12h-40c-6.627 0-12 5.373-12 12v40c0 6.627 5.373 12 12 12zm180 124v36H0v-36c0-6.627 5.373-12 12-12h19.5V85.035C31.5 73.418 42.245 64 55.5 64H144V24c0-13.255 10.745-24 24-24h112c13.255 0 24 10.745 24 24v40h88.5c13.255 0 24 9.418 24 21.035V464H436c6.627 0 12 5.373 12 12zM79.5 463H192v-67c0-6.627 5.373-12 12-12h40c6.627 0 12 5.373 12 12v67h112.5V112H304v24c0 13.255-10.745 24-24 24H168c-13.255 0-24-10.745-24-24v-24H79.5v351zM266 64h-26V38a6 6 0 0 0-6-6h-20a6 6 0 0 0-6 6v26h-26a6 6 0 0 0-6 6v20a6 6 0 0 0 6 6h26v26a6 6 0 0 0 6 6h20a6 6 0 0 0 6-6V96h26a6 6 0 0 0 6-6V70a6 6 0 0 0-6-6z"></path>
    </symbol>
    <symbol id="hospital-user" viewBox="0 0 640 512">
        <path d="M480 320a96 96 0 1 0-96-96 96 96 0 0 0 96 96zm48 32a22.88 22.88 0 0 0-7.06 1.09 124.76 124.76 0 0 1-81.89 0A22.82 22.82 0 0 0 432 352a112 112 0 0 0-112 112.62c.14 26.26 21.73 47.38 48 47.38h224c26.27 0 47.86-21.12 48-47.38A112 112 0 0 0 528 352zm-198.09 10.45A145.19 145.19 0 0 1 352 344.62V128a32 32 0 0 0-32-32h-32V32a32 32 0 0 0-32-32H96a32 32 0 0 0-32 32v64H32a32 32 0 0 0-32 32v368a16 16 0 0 0 16 16h288.31A78.62 78.62 0 0 1 288 464.79a143.06 143.06 0 0 1 41.91-102.34zM144 404a12 12 0 0 1-12 12H92a12 12 0 0 1-12-12v-40a12 12 0 0 1 12-12h40a12 12 0 0 1 12 12zm0-128a12 12 0 0 1-12 12H92a12 12 0 0 1-12-12v-40a12 12 0 0 1 12-12h40a12 12 0 0 1 12 12zm48-122a6 6 0 0 1-6 6h-20a6 6 0 0 1-6-6v-26h-26a6 6 0 0 1-6-6v-20a6 6 0 0 1 6-6h26V70a6 6 0 0 1 6-6h20a6 6 0 0 1 6 6v26h26a6 6 0 0 1 6 6v20a6 6 0 0 1-6 6h-26zm80 250a12 12 0 0 1-12 12h-40a12 12 0 0 1-12-12v-40a12 12 0 0 1 12-12h40a12 12 0 0 1 12 12zm0-128a12 12 0 0 1-12 12h-40a12 12 0 0 1-12-12v-40a12 12 0 0 1 12-12h40a12 12 0 0 1 12 12z"></path>
    </symbol>
    <symbol id="mobile-close" viewBox="0 0 24 24">
        <path d="M12 2c5.514 0 10 4.486 10 10s-4.486 10-10 10-10-4.486-10-10 4.486-10 10-10zm0-2c-6.627 0-12 5.373-12 12s5.373 12 12 12 12-5.373 12-12-5.373-12-12-12zm6 16.538l-4.592-4.548 4.546-4.587-1.416-1.403-4.545 4.589-4.588-4.543-1.405 1.405 4.593 4.552-4.547 4.592 1.405 1.405 4.555-4.596 4.591 4.55 1.403-1.416z"/>
    </symbol>
    <symbol id="mobile-nav" viewBox="0 0 448 392">
        <path d="M16,132H432a16,16,0,0,0,16-16V76a16,16,0,0,0-16-16H16A16,16,0,0,0,0,76v40A16,16,0,0,0,16,132Zm0,160H432a16,16,0,0,0,16-16V236a16,16,0,0,0-16-16H16A16,16,0,0,0,0,236v40A16,16,0,0,0,16,292Zm0,160H432a16,16,0,0,0,16-16V396a16,16,0,0,0-16-16H16A16,16,0,0,0,0,396v40A16,16,0,0,0,16,452Z" transform="translate(0 -60)"/>
    </symbol>
    <symbol id="parking" viewBox="0 0 49.59 46">
        <circle fill="#01254e" cx="26.59" cy="23" r="22.5"/>
        <path fill="#fff" d="M23,1A22,22,0,1,1,1,23,22,22,0,0,1,23,1m0-1A23,23,0,1,0,46,23,23,23,0,0,0,23,0Z" transform="translate(3.59)"/>
        <path fill="#01254e" d="M23.17,42.11A19.51,19.51,0,0,1,3.52,22.79,19.51,19.51,0,0,1,23.17,3.47,19.51,19.51,0,0,1,42.81,22.79,19.51,19.51,0,0,1,23.17,42.11Z" transform="translate(3.59)"/>
        <path fill="#fff" d="M23.17,4A19,19,0,0,1,42.31,22.79,19,19,0,0,1,23.17,41.61,19,19,0,0,1,4,22.79,19,19,0,0,1,23.17,4m0-1A20,20,0,0,0,3,22.79,20,20,0,0,0,23.17,42.61,20,20,0,0,0,43.31,22.79,20,20,0,0,0,23.17,3Z" transform="translate(3.59)"/>
        <text fill="#fff" font-size="28px" font-family="Roboto" font-weight="700" transform="translate(18.83 32.68)">P</text><text x="3.59"/>
    </symbol>
    <symbol id="parking-alt" viewBox="0 0 46 46">
        <circle fill="none" cx="23" cy="23" r="22.5"/>
        <path d="M23,1A22,22,0,1,1,1,23,22,22,0,0,1,23,1m0-1A23,23,0,1,0,46,23,23,23,0,0,0,23,0Z"/>
        <text font-size="33px" font-family="Roboto" font-weight="700" transform="translate(13.85 35.51)">P</text>
    </symbol>
    <symbol id="pay" viewBox="0 0 46 46">
        <circle fill="#01254e" cx="23" cy="23" r="22.5"/>
        <path fill="#fff" d="M23,1A22,22,0,1,1,1,23,22,22,0,0,1,23,1m0-1A23,23,0,1,0,46,23,23,23,0,0,0,23,0Z" transform="translate(0 0)"/>
        <circle fill="#01254e" cx="23.34" cy="22.58" r="19.5"/>
        <path fill="#fff" d="M23.34,3.58a19,19,0,1,1-19,19,19,19,0,0,1,19-19m0-1a20,20,0,1,0,20,20,20,20,0,0,0-20-20Z" transform="translate(0 0)"/>
        <path fill="#fff" d="M27.5,22h-9v3h9Zm4.17-7.08-4.59-4.59a1.11,1.11,0,0,0-.79-.33H26v6h6v-.29A1.13,1.13,0,0,0,31.67,14.92ZM24.5,16.38V10H15.12A1.12,1.12,0,0,0,14,11.12V32.87A1.12,1.12,0,0,0,15.12,34H30.88A1.12,1.12,0,0,0,32,32.87V17.5H25.62A1.13,1.13,0,0,1,24.5,16.38ZM17.38,13h3.74a.38.38,0,0,1,.38.38v.74a.38.38,0,0,1-.38.38H17.38a.38.38,0,0,1-.38-.38v-.74A.38.38,0,0,1,17.38,13Zm0,3h3.74a.38.38,0,0,1,.38.38v.74a.38.38,0,0,1-.38.38H17.38a.38.38,0,0,1-.38-.38v-.74A.38.38,0,0,1,17.38,16ZM28.62,31H24.88a.38.38,0,0,1-.38-.38v-.74a.38.38,0,0,1,.38-.38h3.74a.38.38,0,0,1,.38.38v.74A.38.38,0,0,1,28.62,31ZM29,21.25v4.5a.76.76,0,0,1-.75.75H17.75a.76.76,0,0,1-.75-.75v-4.5a.76.76,0,0,1,.75-.75h10.5A.76.76,0,0,1,29,21.25Z" transform="translate(0 0)"/>
    </symbol>
    <symbol id="pay-alt" viewBox="0 0 46 46">
        <circle fill="none" cx="23" cy="23" r="22.5"/>
        <path d="M23,1A22,22,0,1,1,1,23,22,22,0,0,1,23,1m0-1A23,23,0,1,0,46,23,23,23,0,0,0,23,0Z"/>
        <path d="M28.31,23.5H17.44v3.62H28.31Zm5-8.55L27.81,9.4a1.35,1.35,0,0,0-1-.4H26.5v7.25h7.25V15.9A1.32,1.32,0,0,0,33.35,15ZM24.69,16.7V9H13.36A1.36,1.36,0,0,0,12,10.36V36.64A1.36,1.36,0,0,0,13.36,38h19a1.36,1.36,0,0,0,1.36-1.36V18.06h-7.7A1.36,1.36,0,0,1,24.69,16.7Zm-8.61-4.08h4.53a.46.46,0,0,1,.45.46V14a.46.46,0,0,1-.45.46H16.08a.47.47,0,0,1-.46-.46v-.9A.47.47,0,0,1,16.08,12.62Zm0,3.63h4.53a.45.45,0,0,1,.45.45v.91a.45.45,0,0,1-.45.45H16.08a.46.46,0,0,1-.46-.45V16.7A.46.46,0,0,1,16.08,16.25ZM29.67,34.38H25.14a.46.46,0,0,1-.45-.46V33a.46.46,0,0,1,.45-.46h4.53a.46.46,0,0,1,.45.46v.9A.46.46,0,0,1,29.67,34.38Zm.45-11.79V28a.9.9,0,0,1-.9.91H16.53a.91.91,0,0,1-.91-.91V22.59a.9.9,0,0,1,.91-.9H29.22A.9.9,0,0,1,30.12,22.59Z"/>
    </symbol>
    <symbol id="phone-alt" viewBox="0 0 512 512">
        <path d="M497.39 361.8l-112-48a24 24 0 0 0-28 6.9l-49.6 60.6A370.66 370.66 0 0 1 130.6 204.11l60.6-49.6a23.94 23.94 0 0 0 6.9-28l-48-112A24.16 24.16 0 0 0 122.6.61l-104 24A24 24 0 0 0 0 48c0 256.5 207.9 464 464 464a24 24 0 0 0 23.4-18.6l24-104a24.29 24.29 0 0 0-14.01-27.6z"></path>
    </symbol>
    <symbol id="print" viewBox="0 0 512 512">
        <path d="M448 192V77.25c0-8.49-3.37-16.62-9.37-22.63L393.37 9.37c-6-6-14.14-9.37-22.63-9.37H96C78.33 0 64 14.33 64 32v160c-35.35 0-64 28.65-64 64v112c0 8.84 7.16 16 16 16h48v96c0 17.67 14.33 32 32 32h320c17.67 0 32-14.33 32-32v-96h48c8.84 0 16-7.16 16-16V256c0-35.35-28.65-64-64-64zm-64 256H128v-96h256v96zm0-224H128V64h192v48c0 8.84 7.16 16 16 16h48v96zm48 72c-13.25 0-24-10.75-24-24 0-13.26 10.75-24 24-24s24 10.74 24 24c0 13.25-10.75 24-24 24z"></path>
    </symbol>
    <symbol id="quick-care" viewBox="0 0 46 46">
        <circle fill="none" cx="23" cy="23" r="22.5"/>
        <path d="M23,1A22,22,0,1,1,1,23,22,22,0,0,1,23,1m0-1A23,23,0,1,0,46,23,23,23,0,0,0,23,0Z"/>
        <path d="M27.86,25.34l-5.29,5.3-5.3-5.3a7.45,7.45,0,0,0-7.14,7.45A3.24,3.24,0,0,0,13.36,36H31.77A3.22,3.22,0,0,0,35,32.79,7.44,7.44,0,0,0,27.86,25.34Zm-5.11-.91a7.15,7.15,0,0,0,6.91-7.18v-6a1.76,1.76,0,0,0-1.15-1.66l-4.7-1.77a3.58,3.58,0,0,0-2.5,0l-4.7,1.77a1.77,1.77,0,0,0-1.16,1.66v6.12A7.12,7.12,0,0,0,22.75,24.43ZM20.34,11.52a.28.28,0,0,1,.28-.28h1.22V10a.28.28,0,0,1,.27-.28h.95a.29.29,0,0,1,.28.28v1.22H24.5a.29.29,0,0,1,.28.28v.94a.28.28,0,0,1-.28.28H23.34V14a.28.28,0,0,1-.28.28h-.95a.27.27,0,0,1-.27-.28V12.74H20.62a.27.27,0,0,1-.28-.28Zm-2.22,4.94H27v.83a4.44,4.44,0,1,1-8.88.06Z"/>
    </symbol>
    <symbol id="route" viewBox="0 0 512 512">
        <path d="M416 320h-96c-17.6 0-32-14.4-32-32s14.4-32 32-32h96s96-107 96-160-43-96-96-96-96 43-96 96c0 25.5 22.2 63.4 45.3 96H320c-52.9 0-96 43.1-96 96s43.1 96 96 96h96c17.6 0 32 14.4 32 32s-14.4 32-32 32H185.5c-16 24.8-33.8 47.7-47.3 64H416c52.9 0 96-43.1 96-96s-43.1-96-96-96zm0-256c17.7 0 32 14.3 32 32s-14.3 32-32 32-32-14.3-32-32 14.3-32 32-32zM96 256c-53 0-96 43-96 96s96 160 96 160 96-107 96-160-43-96-96-96zm0 128c-17.7 0-32-14.3-32-32s14.3-32 32-32 32 14.3 32 32-14.3 32-32 32z"></path>
    </symbol>
    <symbol id="search" viewBox="0 0 512 512">
        <path d="M505 442.7L405.3 343c-4.5-4.5-10.6-7-17-7H372c27.6-35.3 44-79.7 44-128C416 93.1 322.9 0 208 0S0 93.1 0 208s93.1 208 208 208c48.3 0 92.7-16.4 128-44v16.3c0 6.4 2.5 12.5 7 17l99.7 99.7c9.4 9.4 24.6 9.4 33.9 0l28.3-28.3c9.4-9.4 9.4-24.6.1-34zM208 336c-70.7 0-128-57.2-128-128 0-70.7 57.2-128 128-128 70.7 0 128 57.2 128 128 0 70.7-57.2 128-128 128z"></path>
    </symbol>
    <symbol id="travel" viewBox="0 0 46 46">
        <circle fill="#01254e" cx="23" cy="23" r="22.5"/>
        <path fill="#fff" d="M23,1A22,22,0,1,1,1,23,22,22,0,0,1,23,1m0-1A23,23,0,1,0,46,23,23,23,0,0,0,23,0Z"/>
        <circle fill="#01254e" cx="23" cy="23" r="19.5"/>
        <path fill="#fff" d="M23,4A19,19,0,1,1,4,23,19,19,0,0,1,23,4m0-1A20,20,0,1,0,43,23,20,20,0,0,0,23,3Z"/>
        <path fill="#fff" d="M30.94,25.87h-5a1.76,1.76,0,0,1-1.71-1.51,1.69,1.69,0,0,1,1.67-1.87h5.07S36,16.86,36,14.06a5.07,5.07,0,0,0-10.13,0c0,1.35,1.18,3.35,2.39,5.06H25.94a5.07,5.07,0,1,0-.07,10.13h5a1.74,1.74,0,0,1,1.7,1.5,1.68,1.68,0,0,1-1.67,1.87H18.78A36,36,0,0,1,16.29,36H30.87a5.07,5.07,0,1,0,.07-10.13Zm0-13.52A1.69,1.69,0,1,1,29.25,14,1.69,1.69,0,0,1,30.94,12.35ZM14.06,22.48A5.07,5.07,0,0,0,9,27.54C9,30.34,14.06,36,14.06,36s5.06-5.64,5.06-8.44A5.06,5.06,0,0,0,14.06,22.48Zm0,6.75a1.69,1.69,0,1,1,1.69-1.69A1.69,1.69,0,0,1,14.06,29.23Z"/>
    </symbol>
    <symbol id="twitter" viewBox="0 0 512 512">
        <path d="M459.37 151.716c.325 4.548.325 9.097.325 13.645 0 138.72-105.583 298.558-298.558 298.558-59.452 0-114.68-17.219-161.137-47.106 8.447.974 16.568 1.299 25.34 1.299 49.055 0 94.213-16.568 130.274-44.832-46.132-.975-84.792-31.188-98.112-72.772 6.498.974 12.995 1.624 19.818 1.624 9.421 0 18.843-1.3 27.614-3.573-48.081-9.747-84.143-51.98-84.143-102.985v-1.299c13.969 7.797 30.214 12.67 47.431 13.319-28.264-18.843-46.781-51.005-46.781-87.391 0-19.492 5.197-37.36 14.294-52.954 51.655 63.675 129.3 105.258 216.365 109.807-1.624-7.797-2.599-15.918-2.599-24.04 0-57.828 46.782-104.934 104.934-104.934 30.213 0 57.502 12.67 76.67 33.137 23.715-4.548 46.456-13.32 66.599-25.34-7.798 24.366-24.366 44.833-46.132 57.827 21.117-2.273 41.584-8.122 60.426-16.243-14.292 20.791-32.161 39.308-52.628 54.253z"></path>
    </symbol>
    <symbol id="users" viewBox="0 0 640 512">
        <path d="M96 224c35.3 0 64-28.7 64-64s-28.7-64-64-64-64 28.7-64 64 28.7 64 64 64zm448 0c35.3 0 64-28.7 64-64s-28.7-64-64-64-64 28.7-64 64 28.7 64 64 64zm32 32h-64c-17.6 0-33.5 7.1-45.1 18.6 40.3 22.1 68.9 62 75.1 109.4h66c17.7 0 32-14.3 32-32v-32c0-35.3-28.7-64-64-64zm-256 0c61.9 0 112-50.1 112-112S381.9 32 320 32 208 82.1 208 144s50.1 112 112 112zm76.8 32h-8.3c-20.8 10-43.9 16-68.5 16s-47.6-6-68.5-16h-8.3C179.6 288 128 339.6 128 403.2V432c0 26.5 21.5 48 48 48h288c26.5 0 48-21.5 48-48v-28.8c0-63.6-51.6-115.2-115.2-115.2zm-223.7-13.4C161.5 263.1 145.6 256 128 256H64c-35.3 0-64 28.7-64 64v32c0 17.7 14.3 32 32 32h65.9c6.3-47.4 34.9-87.3 75.2-109.4z"></path>
    </symbol>
    <symbol id="youtube" viewBox="0 0 576 512">
        <path d="M549.655 124.083c-6.281-23.65-24.787-42.276-48.284-48.597C458.781 64 288 64 288 64S117.22 64 74.629 75.486c-23.497 6.322-42.003 24.947-48.284 48.597-11.412 42.867-11.412 132.305-11.412 132.305s0 89.438 11.412 132.305c6.281 23.65 24.787 41.5 48.284 47.821C117.22 448 288 448 288 448s170.78 0 213.371-11.486c23.497-6.321 42.003-24.171 48.284-47.821 11.412-42.867 11.412-132.305 11.412-132.305s0-89.438-11.412-132.305zm-317.51 213.508V175.185l142.739 81.205-142.739 81.201z"></path>
    </symbol>
	<symbol id="folder-heart" data-name="folder-heart" xmlns="http://www.w3.org/2000/svg" viewBox="0 0 383.92 315.72">
        <defs>
            <style>
                .cls-1 {
                    fill: #fff;
                }
            </style>
        </defs>
        <path class="cls-1" d="M447.83,182.45v-5.38H442c-59.84,0-119.69.12-179.53-.11-10.9,0-19.87,3.21-27.07,11.34-10,11.27-22.68,15.53-37.46,15.47-42.34-.18-84.68-.06-127-.07H64.36c-.09,1.68-.2,2.65-.2,3.62q0,92.78,0,185.56c0,12.54,8.77,20.95,21.78,20.95q170,.06,340,0c13.7,0,21.94-8.49,21.94-22.31ZM332.74,289.51c-.94,9.77-5.13,18.15-11,25.85-16,21.07-35.25,39-54.67,56.83-9.71,8.89-10.13,9.14-19.33,0-17.05-16.84-33.92-33.89-50.35-51.34-7.54-8-13.18-17.43-14.92-28.83-2.91-19.07,6.26-37.48,22.47-44.19,18.95-7.85,39.66-2.34,51.3,13.64l1.07,1.5c7.57-11.8,18.37-17.66,31.71-18.56C321,242.29,334.89,267.13,332.74,289.51Z" transform="translate(-64.06 -98.14)" />
        <path class="cls-1" d="M64.07,183.15V162.6c0-14.17,0-28.33,0-42.5,0-13.4,8.4-21.89,21.84-21.92q59-.11,118,0c9.22,0,15.46,5.34,18.27,13.16C227.61,126.47,239,131,253.39,131q84.23.11,168.46.05c13.39,0,21.2,6,24.81,19.09.52,1.91.77,3.89,1.32,6.69H441.9q-90.22,0-180.45,0c-14.39,0-26.84,4.14-36.55,15.18-7.2,8.19-16.27,11.29-27.12,11.23-42.33-.23-84.65-.1-127-.1Z" transform="translate(-64.06 -98.14)" />
    </symbol>
</svg>