<svg xmlns="http://www.w3.org/2000/svg" width="25.121" height="25.12" viewBox="0 0 25.121 25.12">
  <path id="Path_85" data-name="Path 85" d="M844.153-2660.423a9.633,9.633,0,0,0-6.859-2.842,9.633,9.633,0,0,0-6.859,2.842,9.637,9.637,0,0,0-2.842,6.858,9.633,9.633,0,0,0,1.434,5.063l-6.489,6.489a2.265,2.265,0,0,0,0,3.2,2.266,2.266,0,0,0,3.2,0l6.491-6.491a9.688,9.688,0,0,0,5.06,1.432,9.67,9.67,0,0,0,6.859-2.837,9.638,9.638,0,0,0,2.842-6.86A9.637,9.637,0,0,0,844.153-2660.423Zm-1.888,11.83a7.038,7.038,0,0,1-9.942,0,6.985,6.985,0,0,1-2.059-4.972,6.985,6.985,0,0,1,2.059-4.971,6.985,6.985,0,0,1,4.971-2.059,6.987,6.987,0,0,1,4.971,2.059,6.985,6.985,0,0,1,2.059,4.971A6.985,6.985,0,0,1,842.265-2648.593Zm-1.3-8.967a5.355,5.355,0,0,0-2.74-1.5,1.1,1.1,0,0,0-1.286.877,1.1,1.1,0,0,0,.877,1.285,3.144,3.144,0,0,1,1.594.891,3.141,3.141,0,0,1,.89,1.593,1.1,1.1,0,0,0,1.08.895,1.125,1.125,0,0,0,.206-.019,1.1,1.1,0,0,0,.876-1.286A5.364,5.364,0,0,0,840.964-2657.56Z" transform="translate(-821.874 2663.265)" fill="#00274d"/>
</svg>
