<?xml version="1.0" standalone="no"?>
<!DOCTYPE svg PUBLIC "-//W3C//DTD SVG 20010904//EN"
 "http://www.w3.org/TR/2001/REC-SVG-20010904/DTD/svg10.dtd">
<svg version="1.0" xmlns="http://www.w3.org/2000/svg"
 width="512.000000pt" height="512.000000pt" viewBox="0 0 512.000000 512.000000"
 preserveAspectRatio="xMidYMid meet">
<metadata>
Created by potrace 1.14, written by Peter Selinger 2001-2017
</metadata>
<g transform="translate(0.000000,512.000000) scale(0.100000,-0.100000)"
fill="#000000" stroke="none">
<path d="M0 2560 l0 -2560 2560 0 2560 0 0 2560 0 2560 -2560 0 -2560 0 0
-2560z m622 213 c3 -444 3 -444 61 -487 27 -20 41 -21 256 -21 342 0 315 -42
319 502 l3 413 149 0 150 0 2 -457 3 -458 78 -3 77 -3 0 461 0 460 237 -2 238
-3 165 -272 c91 -150 168 -272 172 -273 3 0 82 124 174 275 l167 275 234 0
233 0 0 -460 0 -460 79 0 80 0 3 333 c5 376 9 401 78 479 45 52 106 82 202 98
100 18 726 8 793 -12 72 -21 108 -42 143 -82 38 -43 51 -86 59 -193 l6 -83
-151 0 -150 0 -7 39 c-12 75 -16 76 -291 79 -376 5 -369 11 -369 -338 1 -340
-15 -325 352 -325 l263 0 27 28 c27 26 28 32 32 147 l3 120 150 0 150 0 -4
-207 c-3 -191 -5 -211 -25 -249 -30 -56 -81 -98 -145 -120 -51 -18 -128 -19
-2038 -19 -1866 0 -1988 1 -2042 18 -86 26 -137 70 -178 152 l-35 69 -3 493
-3 493 150 0 150 0 3 -407z"/>
<path d="M2020 2575 l0 -315 196 0 c175 0 195 2 190 16 -8 21 -377 614 -382
614 -2 0 -4 -142 -4 -315z"/>
<path d="M3009 2840 c-59 -89 -359 -571 -359 -576 0 -2 88 -4 195 -4 148 0
197 3 200 13 3 7 4 149 3 317 l-3 305 -36 -55z"/>
</g>
</svg>
